<svg width="50" height="50" viewBox="0 0 50 50" fill="none" xmlns="http://www.w3.org/2000/svg">
                        <g clip-path="url(#clip0_56_3192)">
                          <path d="M31.2502 43.2135C25.0426 45.343 18.1041 44.125 12.9928 40.0452C13.1251 39.7556 13.1994 39.4342 13.1994 39.0956C13.1994 37.8302 12.1699 36.8007 10.9045 36.8007C10.5657 36.8007 10.2441 36.8751 9.95437 37.0074C6.5659 32.764 5.13533 27.2532 5.99802 21.9086L7.02849 23.3354C7.16219 23.5205 7.37117 23.6188 7.58328 23.6188C7.72195 23.6188 7.86199 23.5768 7.98289 23.4894C8.28894 23.2684 8.35789 22.841 8.13689 22.535L6.19148 19.8411C6.08533 19.6941 5.92517 19.5953 5.74617 19.5665C5.56717 19.5374 5.38406 19.5811 5.23709 19.6872L2.54324 21.6326C2.23718 21.8536 2.16824 22.281 2.38924 22.587C2.61033 22.8931 3.03767 22.9621 3.34363 22.741L4.62801 21.8135C3.74197 27.5236 5.29715 33.3998 8.93435 37.9201C8.7283 38.2642 8.60945 38.6662 8.60945 39.0957C8.60945 40.3611 9.63894 41.3906 10.9044 41.3906C11.3339 41.3906 11.7359 41.2718 12.0801 41.0656C15.781 44.0425 20.3854 45.6126 25.0406 45.6126C27.2783 45.6126 29.5276 45.25 31.6937 44.5068C32.0509 44.3844 32.241 43.9955 32.1185 43.6384C31.996 43.2812 31.6073 43.0908 31.2502 43.2135ZM9.97674 39.0956C9.97674 38.5841 10.3929 38.1679 10.9045 38.1679C11.416 38.1679 11.8322 38.5841 11.8322 39.0956C11.8322 39.6071 11.4161 40.0233 10.9045 40.0233C10.3928 40.0232 9.97674 39.6071 9.97674 39.0956ZM18.75 6.78643C24.9582 4.65644 31.8966 5.87451 37.0074 9.95449C36.8752 10.2441 36.8008 10.5656 36.8008 10.9043C36.8008 12.1697 37.8302 13.1992 39.0957 13.1992C39.4344 13.1992 39.7559 13.1249 40.0457 12.9926C43.455 17.2551 44.8798 22.6944 44.0031 28.0928L42.9717 26.6645C42.7508 26.3584 42.3234 26.2895 42.0173 26.5105C41.7112 26.7314 41.6423 27.1588 41.8633 27.4648L43.8086 30.1587C43.9147 30.3057 44.0749 30.4045 44.2539 30.4333C44.2901 30.4392 44.3265 30.442 44.3628 30.442C44.5055 30.442 44.6458 30.3973 44.763 30.3126L47.4568 28.3672C47.7629 28.1462 47.8318 27.7188 47.6108 27.4128C47.3898 27.1068 46.9625 27.0378 46.6564 27.2588L45.3707 28.1872C45.8017 25.4031 45.6608 22.5206 44.9521 19.8004C44.2216 16.9961 42.8821 14.3382 41.0658 12.0792C41.2718 11.7353 41.3905 11.3333 41.3905 10.904C41.3905 9.63857 40.361 8.60908 39.0956 8.60908C38.6663 8.60908 38.2642 8.72783 37.9202 8.93389C32.4407 4.52588 24.9793 3.20352 18.3062 5.49297C17.9491 5.61543 17.759 6.0043 17.8814 6.36143C18.0041 6.71875 18.3929 6.90898 18.75 6.78643ZM40.0234 10.9043C40.0234 11.4158 39.6072 11.832 39.0957 11.832C38.5842 11.832 38.1679 11.4158 38.1679 10.9043C38.1679 10.3928 38.5842 9.97656 39.0957 9.97656C39.6072 9.97656 40.0234 10.3928 40.0234 10.9043ZM7.85613 2.7874V1.5625C7.85613 1.18496 8.16218 0.878906 8.53972 0.878906C8.91726 0.878906 9.22332 1.18496 9.22332 1.5625V2.7874C9.22332 3.16494 8.91726 3.471 8.53972 3.471C8.16218 3.471 7.85613 3.16494 7.85613 2.7874ZM3.91951 2.98369C3.73074 2.65674 3.84275 2.23867 4.1697 2.0499C4.49676 1.86113 4.91472 1.97314 5.10349 2.3001L5.7159 3.36094C5.90467 3.68789 5.79265 4.10596 5.4657 4.29473C5.35799 4.35693 5.24051 4.38643 5.12449 4.38643C4.88826 4.38643 4.65847 4.26387 4.53191 4.04453L3.91951 2.98369ZM2.28172 6.79521L1.22088 6.18281C0.893923 5.99404 0.781814 5.57598 0.970583 5.24902C1.15935 4.92197 1.57761 4.81006 1.90437 4.99873L2.96521 5.61113C3.29217 5.7999 3.40427 6.21797 3.2155 6.54492C3.08894 6.76426 2.85906 6.88682 2.62283 6.88682C2.50681 6.88682 2.38933 6.85732 2.28172 6.79521ZM11.3636 3.36094L11.9761 2.3001C12.1648 1.97314 12.583 1.86113 12.9098 2.0499C13.2368 2.23867 13.3488 2.65674 13.16 2.98369L12.5475 4.04453C12.421 4.26387 12.1912 4.38643 11.955 4.38643C11.8389 4.38643 11.7215 4.35693 11.6137 4.29473C11.2868 4.10586 11.1748 3.68779 11.3636 3.36094ZM13.864 6.54492C13.6753 6.21797 13.7874 5.7999 14.1143 5.61113L15.1752 4.99873C15.502 4.81016 15.9202 4.92207 16.109 5.24902C16.2977 5.57598 16.1856 5.99404 15.8587 6.18281L14.7978 6.79521C14.6902 6.85732 14.5726 6.88682 14.4567 6.88682C14.2205 6.88682 13.9907 6.76426 13.864 6.54492ZM13.0334 8.83799C13.0334 6.36025 11.0176 4.34443 8.53972 4.34443C6.06189 4.34443 4.04617 6.36025 4.04617 8.83799C4.04617 10.0953 4.45506 10.728 4.85047 11.34C5.20418 11.8874 5.56834 12.4516 5.73533 13.6813C5.36697 13.9143 5.12107 14.3241 5.12107 14.7912V16.1506C5.12107 16.8631 5.69138 17.4448 6.39939 17.4636C6.42654 18.1443 6.98884 18.6897 7.67615 18.6897H9.4034C10.0907 18.6897 10.6529 18.1443 10.6802 17.4636C11.3883 17.4449 11.9586 16.8632 11.9586 16.1506V14.7912C11.9586 14.324 11.7127 13.9142 11.3443 13.6812C11.5113 12.4515 11.8754 11.8873 12.2291 11.3399C12.6245 10.7281 13.0334 10.0953 13.0334 8.83799ZM10.5913 16.097H9.99754C9.62 16.097 9.31394 16.403 9.31394 16.7806V17.3227H7.7656V16.7806C7.7656 16.403 7.45955 16.097 7.08201 16.097H6.48826V14.845H10.5913V16.097ZM11.0807 10.598C10.6847 11.2109 10.2032 11.957 9.99256 13.4777H9.22332V9.9417L10.5153 9.1958C10.8423 9.00703 10.9543 8.58896 10.7655 8.26201C10.5767 7.93506 10.1589 7.82295 9.83172 8.01182L8.53972 8.75771L7.24773 8.01182C6.92078 7.82295 6.50271 7.93496 6.31394 8.26201C6.12517 8.58896 6.23719 9.00703 6.56414 9.1958L7.85613 9.9417V13.4777H7.08689C6.87625 11.957 6.3947 11.2108 5.99871 10.598C5.64617 10.0524 5.41326 9.69199 5.41326 8.83799C5.41326 7.11406 6.8158 5.71162 8.53972 5.71162C10.2636 5.71162 11.6662 7.11406 11.6662 8.83799C11.6662 9.69209 11.4333 10.0525 11.0807 10.598ZM47.9161 38.4985C47.4678 38.4985 47.0975 38.2506 46.9255 37.8353C46.7534 37.4199 46.84 36.9827 47.157 36.6656C47.6268 36.1957 47.6268 35.4313 47.157 34.9613L46.0341 33.8384C45.5641 33.3686 44.7996 33.3687 44.3298 33.8384C44.0127 34.1553 43.5754 34.2419 43.1602 34.0698C42.7449 33.8978 42.4969 33.5274 42.4969 33.0792C42.4969 32.4146 41.9563 31.874 41.2918 31.874H39.7039C39.0393 31.874 38.4987 32.4146 38.4987 33.0792C38.4987 33.5274 38.2508 33.8978 37.8354 34.0698C37.4201 34.242 36.9828 34.1553 36.6658 33.8383C36.1959 33.3684 35.4313 33.3685 34.9615 33.8383L33.8386 34.9611C33.611 35.1888 33.4857 35.4914 33.4857 35.8133C33.4857 36.1353 33.6111 36.4379 33.8386 36.6655C34.1556 36.9825 34.2422 37.4197 34.0701 37.8351C33.898 38.2504 33.5277 38.4983 33.0795 38.4983C32.4149 38.4983 31.8744 39.039 31.8744 39.7035V41.2914C31.8744 41.956 32.415 42.4966 33.0795 42.4966C33.5277 42.4966 33.898 42.7445 34.0701 43.1599C34.2422 43.5752 34.1555 44.0124 33.8386 44.3294C33.611 44.557 33.4857 44.8597 33.4857 45.1816C33.4857 45.5036 33.6111 45.8062 33.8386 46.0338L34.9615 47.1566C35.1891 47.3843 35.4918 47.5097 35.8137 47.5097C36.1357 47.5097 36.4384 47.3843 36.666 47.1567C36.9836 46.8392 37.4209 46.7521 37.836 46.924C38.2511 47.0959 38.4988 47.4667 38.4988 47.9159C38.4988 48.5805 39.0394 49.1211 39.704 49.1211H41.2919C41.9564 49.1211 42.497 48.5805 42.497 47.9159C42.497 47.4677 42.745 47.0974 43.1603 46.9253C43.5756 46.7532 44.0129 46.8397 44.3299 47.1567C44.7997 47.6267 45.5643 47.6267 46.0343 47.1567L47.1571 46.0339C47.6269 45.5641 47.627 44.7995 47.1571 44.3295C46.8401 44.0125 46.7536 43.5753 46.9257 43.16C47.0977 42.7446 47.468 42.4967 47.9163 42.4967C48.5808 42.4967 49.1215 41.9561 49.1215 41.2915V39.7036C49.1212 39.0392 48.5805 38.4985 47.9161 38.4985ZM47.754 41.1346C46.8188 41.1932 46.0265 41.7574 45.6623 42.6368C45.298 43.5162 45.4593 44.4755 46.0791 45.1781L45.1782 46.079C44.4756 45.4591 43.5162 45.2979 42.6369 45.6622C41.7576 46.0264 41.1932 46.8187 41.1346 47.7539H39.8607C39.8022 46.8179 39.2382 46.0251 38.3591 45.6609C37.4801 45.2968 36.5205 45.4584 35.8172 46.079L34.9163 45.1781C35.5362 44.4754 35.6974 43.5161 35.3331 42.6368C34.9689 41.7575 34.1765 41.1932 33.2415 41.1346V39.8606C34.1766 39.8021 34.9689 39.2378 35.3331 38.3584C35.6973 37.479 35.5362 36.5197 34.9163 35.8171L35.8172 34.9162C36.5199 35.5361 37.4793 35.6974 38.3585 35.333C39.2379 34.9688 39.8022 34.1766 39.8607 33.2413H41.1346C41.1931 34.1766 41.7575 34.9688 42.6369 35.333C43.5161 35.6973 44.4756 35.5361 45.1782 34.9162L46.0791 35.8171C45.4592 36.5198 45.298 37.4791 45.6623 38.3584C46.0264 39.2377 46.8188 39.8021 47.754 39.8606V41.1346ZM40.4977 35.9991C38.0173 35.9991 35.9993 38.0172 35.9993 40.4977C35.9993 42.9781 38.0174 44.9961 40.4977 44.9961C42.9782 44.9961 44.9963 42.978 44.9963 40.4977C44.9963 38.0171 42.9783 35.9991 40.4977 35.9991ZM40.4977 43.6289C38.7712 43.6289 37.3665 42.2242 37.3665 40.4977C37.3665 38.771 38.7712 37.3663 40.4977 37.3663C42.2244 37.3663 43.6291 38.771 43.6291 40.4977C43.6291 42.2242 42.2244 43.6289 40.4977 43.6289ZM25.3419 12.4354C25.1304 12.3134 24.8698 12.3134 24.6583 12.4354L14.2897 18.4218C14.0782 18.5438 13.9479 18.7695 13.9479 19.0138V30.9863C13.9479 31.2306 14.0782 31.4562 14.2897 31.5783L24.6583 37.5645C24.764 37.6255 24.8821 37.6561 25.0001 37.6561C25.118 37.6561 25.2361 37.6256 25.3419 37.5645L35.7104 31.5782C35.922 31.4562 36.0522 31.2305 36.0522 30.9862V19.0138C36.0522 18.7695 35.922 18.5438 35.7104 18.4218L25.3419 12.4354ZM25.0001 13.8167L34.0014 19.0137L31.6265 20.3849L22.6252 15.1879L25.0001 13.8167ZM25.0001 24.2106L15.9987 19.0138L18.3736 17.6426L27.375 22.8396L25.0001 24.2106ZM28.7422 22.0501L19.7408 16.8531L21.258 15.9771L30.2594 21.1741L28.7422 22.0501ZM29.4258 23.2341L30.9429 22.3582V25.7681L29.4258 26.644V23.2341ZM15.3151 20.1977L24.3165 25.3946V35.7885L15.3151 30.5916V20.1977ZM25.6837 35.7885V25.3946L28.0586 24.0234V27.8279C28.0586 28.0722 28.1888 28.2978 28.4004 28.4199C28.5061 28.481 28.6242 28.5115 28.7422 28.5115C28.8601 28.5115 28.9782 28.481 29.084 28.4199L31.9683 26.7547C32.1799 26.6326 32.3101 26.4069 32.3101 26.1627V21.5688L34.685 20.1977V30.5915L25.6837 35.7885Z" fill="#1A4137"></path>
                        </g>
                      </svg>