<svg width="70" height="70" viewBox="0 0 70 70" fill="none" xmlns="http://www.w3.org/2000/svg">
                <g clip-path="url(#clip0_56_3429)">
                  <path d="M14.4695 57.4236C16.6306 56.0111 18.0645 53.575 18.0645 50.8064C18.0645 46.4485 14.5181 42.9032 10.1613 42.9032C5.8045 42.9032 2.25806 46.4485 2.25806 50.8064C2.25806 53.575 3.69194 56.0111 5.85304 57.4236C2.40032 59.0481 0 62.5516 0 66.6129V68.871C0 69.4939 0.504395 70 1.12903 70H19.1935C19.8182 70 20.3226 69.4939 20.3226 68.871V66.6129C20.3226 62.5516 17.9223 59.0481 14.4695 57.4236ZM15.6923 49.6774H14.6774C12.8103 49.6774 11.2903 48.1575 11.2903 46.2903V45.2755C13.4987 45.7258 15.2419 47.469 15.6923 49.6774ZM9.03226 45.2755V46.2903C9.03226 48.1575 7.5123 49.6774 5.64516 49.6774H4.6303C5.08065 47.469 6.82387 45.7258 9.03226 45.2755ZM4.6303 51.9355H5.64516C7.49804 51.9355 9.13147 51.0252 10.1613 49.6427C11.1911 51.0252 12.8245 51.9355 14.6774 51.9355H15.6923C15.1676 54.5083 12.888 56.4516 10.1613 56.4516C7.43454 56.4516 5.15502 54.5083 4.6303 51.9355ZM18.0645 67.7419H2.25806V66.6129C2.25806 62.255 5.8045 58.7097 10.1613 58.7097C14.5181 58.7097 18.0645 62.255 18.0645 66.6129V67.7419ZM64.147 57.4236C66.3081 56.0111 67.7419 53.575 67.7419 50.8064C67.7419 46.4485 64.1955 42.9032 59.8387 42.9032C55.4819 42.9032 51.9355 46.4485 51.9355 50.8064C51.9355 53.575 53.3694 56.0111 55.5305 57.4236C52.0777 59.0481 49.6774 62.5516 49.6774 66.6129V68.871C49.6774 69.4939 50.1818 70 50.8064 70H68.871C69.4956 70 70 69.4939 70 68.871V66.6129C70 62.5516 67.5997 59.0481 64.147 57.4236ZM65.3697 49.6774H64.3548C62.4877 49.6774 60.9677 48.1575 60.9677 46.2903V45.2755C63.1761 45.7258 64.9194 47.469 65.3697 49.6774ZM58.7097 45.2755V46.2903C58.7097 48.1575 57.1897 49.6774 55.3226 49.6774H54.3077C54.7581 47.469 56.5013 45.7258 58.7097 45.2755ZM54.3077 51.9355H55.3226C57.1755 51.9355 58.8089 51.0252 59.8387 49.6427C60.8685 51.0252 62.502 51.9355 64.3548 51.9355H65.3697C64.845 54.5083 62.5655 56.4516 59.8387 56.4516C57.112 56.4516 54.8324 54.5083 54.3077 51.9355ZM67.7419 67.7419H51.9355V66.6129C51.9355 62.255 55.4819 58.7097 59.8387 58.7097C64.1955 58.7097 67.7419 62.255 67.7419 66.6129V67.7419ZM30.6918 14.5203C27.239 16.1449 24.8387 19.6484 24.8387 23.7097V25.9677C24.8387 26.5907 25.3431 27.0968 25.9677 27.0968H44.0323C44.6569 27.0968 45.1613 26.5907 45.1613 25.9677V23.7097C45.1613 19.6484 42.761 16.1449 39.3082 14.5203C41.4694 13.1079 42.9032 10.6718 42.9032 7.90323C42.9032 3.5453 39.3568 0 35 0C30.6432 0 27.0968 3.5453 27.0968 7.90323C27.0968 10.6718 28.5306 13.1079 30.6918 14.5203ZM42.9032 23.7097V24.8387H27.0968V23.7097C27.0968 19.3518 30.6432 15.8065 35 15.8065C39.3568 15.8065 42.9032 19.3518 42.9032 23.7097ZM29.469 9.03226H30.4839C32.3368 9.03226 33.9702 8.12198 35 6.73948C36.0298 8.12198 37.6632 9.03226 39.5161 9.03226H40.531C40.0063 11.605 37.7268 13.5484 35 13.5484C32.2732 13.5484 29.9937 11.605 29.469 9.03226ZM40.531 6.77419H39.5161C37.649 6.77419 36.129 5.25423 36.129 3.3871V2.37224C38.3374 2.82258 40.0806 4.56581 40.531 6.77419ZM33.871 2.37224V3.3871C33.871 5.25423 32.351 6.77419 30.4839 6.77419H29.469C29.9194 4.56581 31.6626 2.82258 33.871 2.37224ZM27.0968 53.0645C27.0968 53.2878 27.1631 53.506 27.2871 53.6916C27.4112 53.8773 27.5875 54.0219 27.7938 54.1074C28.0001 54.1928 28.227 54.2152 28.446 54.1716C28.665 54.1281 28.8661 54.0206 29.024 53.8627L33.2094 49.6774H39.5161C40.1408 49.6774 40.6452 49.1713 40.6452 48.5484V45.1613H49.6774C50.3021 45.1613 50.8064 44.6552 50.8064 44.0323V30.4839C50.8064 29.8609 50.3021 29.3548 49.6774 29.3548H29.3548C28.7302 29.3548 28.2258 29.8609 28.2258 30.4839V38.3871H21.4516C20.827 38.3871 20.3226 38.8932 20.3226 39.5161V48.5484C20.3226 49.1713 20.827 49.6774 21.4516 49.6774H27.0968V53.0645ZM30.4839 31.6129H48.5484V42.9032H40.6452V40.6452H44.0323V38.3871H30.4839V31.6129ZM22.5806 47.4194V40.6452H38.3871V47.4194H32.7419C32.4415 47.4194 32.1548 47.5379 31.9437 47.7502L29.3548 50.339V48.5484C29.3548 47.9254 28.8504 47.4194 28.2258 47.4194H22.5806Z" fill="#051B05"></path>
                  <path d="M24.8385 42.9052H36.1288V45.1632H24.8385V42.9052ZM32.7417 33.8729H46.2901V36.131H32.7417V33.8729ZM5.21715 41.5358C4.75047 39.3892 4.51537 37.1987 4.51588 35.0019C4.51588 21.9278 12.8277 10.3248 25.2006 6.12667L24.4752 3.98828C11.1865 8.49665 2.25781 20.9602 2.25781 35.0019C2.25781 37.3647 2.51184 39.726 3.01201 42.0165L5.21715 41.5358ZM34.9997 65.4858C30.8414 65.4858 26.8131 64.6639 23.0252 63.0436L22.1365 65.1197C26.2078 66.8607 30.5354 67.7439 34.9997 67.7439C39.4641 67.7439 43.7917 66.8607 47.8639 65.1197L46.9753 63.0437C43.1864 64.6637 39.1581 65.4858 34.9997 65.4858ZM65.4836 35.0019C65.4836 37.2038 65.2477 39.4018 64.7823 41.5358L66.9875 42.0176C67.4891 39.7128 67.7419 37.3607 67.7417 35.0019C67.7417 20.9602 58.813 8.49665 45.5232 3.98828L44.7978 6.12667C57.172 10.3248 65.4836 21.9278 65.4836 35.0019Z" fill="#051B05"></path>
                </g>
                <defs>
                  <clipPath id="clip0_56_3429">
                    <rect width="70" height="70" fill="white"></rect>
                  </clipPath>
                </defs>
              </svg>