<svg width="43" height="43" viewBox="0 0 43 43" fill="none" xmlns="http://www.w3.org/2000/svg">
                            <path d="M37.0891 13.1461L37.2094 13.0086L38.2922 11.9258L40.2516 9.96641C41.1453 9.07266 41.6438 7.88672 41.6438 6.63203C41.6438 5.37734 41.1453 4.19141 40.2516 3.29766L39.7016 2.74766C37.9141 0.960156 34.8203 0.960156 33.0328 2.74766L31.0735 4.70703L3.2297 32.5508L3.04064 32.7398L1.09845 41.9008L10.2594 39.9586L37.0891 13.1461ZM34.2531 3.95078C35.3875 2.83359 37.3469 2.81641 38.4813 3.95078L39.0485 4.51797C39.6156 5.08516 39.925 5.82422 39.925 6.63203C39.925 7.43984 39.6156 8.17891 39.0485 8.74609L37.0891 10.7055L32.2938 5.91016L34.2531 3.95078ZM31.0735 7.13047L32.861 8.91797L6.83907 34.9398L5.05157 33.1523L31.0735 7.13047ZM3.33282 39.6664L4.34689 34.8883L8.11095 38.6523L3.33282 39.6664ZM9.84689 37.9477L8.05939 36.1602L34.0813 10.1383L35.8688 11.9258L9.84689 37.9477ZM12.425 20.932L0.239075 8.74609L8.74689 0.238281L20.9328 12.4242L17.2375 16.0336L16.0172 14.8133L18.4406 12.3898L16.0172 9.94922L12.4078 13.5758L11.1875 12.3555L14.7969 8.74609L12.3734 6.30547L9.93283 8.74609L8.71251 7.52578L11.1531 5.08516L8.7297 2.66172L2.64532 8.74609L13.6281 19.7289L12.4078 20.932H12.425ZM42.761 34.2523L34.2531 42.7602L22.0672 30.5742L23.2875 29.3711L34.2531 40.3367L40.3375 34.2523L37.9141 31.8289L34.2875 35.4383L33.0672 34.218L36.6938 30.5914L34.2531 28.168L31.8297 30.5914L30.6094 29.3711L33.0328 26.9305L30.5922 24.507L26.9828 28.1164L25.7625 26.8961L30.5578 22.032L42.7438 34.218L42.761 34.2523Z" fill="black"></path>
                          </svg>